<svg width="10" height="8" viewBox="0 0 10 8" fill="none" xmlns="http://www.w3.org/2000/svg">
<g id="Group 1">
<g id="Group">
<g id="Group_2">
<g id="Group_3">
<path id="Vector" d="M9.56813 1.36135C9.37276 1.15685 9.10295 1.03601 8.79593 1.03601H7.25153V1.01742C7.25153 0.78503 7.15849 0.561938 7.00033 0.41321C6.84216 0.255186 6.62818 0.162231 6.39559 0.162231H3.6045C3.3626 0.162231 3.14862 0.255186 2.99045 0.41321C2.83229 0.571233 2.73926 0.78503 2.73926 1.01742V1.03601H1.20415C0.897133 1.03601 0.627328 1.15685 0.431951 1.36135C0.236574 1.55656 0.106323 1.83542 0.106323 2.13288V6.76203C0.106323 7.06878 0.227271 7.33835 0.431951 7.53356C0.627328 7.72876 0.906437 7.8589 1.20415 7.8589H8.79593C9.10295 7.8589 9.37276 7.73806 9.56813 7.53356C9.76351 7.33835 9.89376 7.05949 9.89376 6.76203V2.13288C9.89376 1.82613 9.77281 1.55656 9.56813 1.36135ZM9.40997 6.76203H9.40067C9.40067 6.92935 9.33554 7.07808 9.2239 7.18963C9.11226 7.30117 8.9634 7.36624 8.79593 7.36624H1.20415C1.03669 7.36624 0.88783 7.30117 0.776186 7.18963C0.664542 7.07808 0.599417 6.92935 0.599417 6.76203V2.13288C0.599417 1.96556 0.664542 1.81683 0.776186 1.70528C0.88783 1.59374 1.03669 1.52867 1.20415 1.52867H2.99976C3.13931 1.52867 3.25096 1.41712 3.25096 1.27769V1.00812C3.25096 0.905871 3.28817 0.812916 3.3533 0.747848C3.41842 0.682779 3.51146 0.645597 3.6138 0.645597H6.39559C6.49793 0.645597 6.59097 0.682779 6.65609 0.747848C6.72122 0.812916 6.75843 0.905871 6.75843 1.00812V1.27769C6.75843 1.41712 6.87008 1.52867 7.00963 1.52867H8.80523C8.9727 1.52867 9.12156 1.59374 9.2332 1.70528C9.34485 1.81683 9.40997 1.96556 9.40997 2.13288V6.76203Z" fill="#B71DDE"/>
<path id="Vector_2" d="M5 2.16077C4.36735 2.16077 3.79053 2.42104 3.38117 2.83004C2.9625 3.24834 2.7113 3.81536 2.7113 4.44746C2.7113 5.07955 2.97181 5.65587 3.38117 6.06487C3.79983 6.48317 4.36735 6.73415 5 6.73415C5.63265 6.73415 6.20948 6.47388 6.61884 6.06487C7.0375 5.64658 7.2887 5.07955 7.2887 4.44746C7.2887 3.81536 7.0282 3.23904 6.61884 2.83004C6.20948 2.42104 5.63265 2.16077 5 2.16077ZM6.2653 5.72094C5.93967 6.03699 5.49309 6.24149 5 6.24149C4.50691 6.24149 4.06033 6.03699 3.73471 5.72094C3.40908 5.3956 3.2137 4.94942 3.2137 4.45675C3.2137 3.96409 3.41838 3.51791 3.73471 3.19257C4.06033 2.86722 4.50691 2.67202 5 2.67202C5.49309 2.67202 5.93967 2.87652 6.2653 3.19257C6.59092 3.51791 6.7863 3.96409 6.7863 4.45675C6.79561 4.94942 6.59092 5.3956 6.2653 5.72094Z" fill="#B71DDE"/>
<path id="Vector_3" d="M8.3122 3.06325C8.56398 3.06325 8.76808 2.85914 8.76808 2.60737C8.76808 2.35559 8.56398 2.15149 8.3122 2.15149C8.06043 2.15149 7.85632 2.35559 7.85632 2.60737C7.85632 2.85914 8.06043 3.06325 8.3122 3.06325Z" fill="#B71DDE"/>
</g>
</g>
</g>
</g>
</svg>
