<svg width="17" height="18" viewBox="0 0 17 18" fill="none" xmlns="http://www.w3.org/2000/svg">
<path d="M3.39928 7.2884C3.36683 7.02879 3.27008 6.78774 3.12421 6.58033L16.1917 2.42747L15.5057 0.471871C15.406 0.187685 15.0831 0.0343184 14.7847 0.129108L0.570162 4.64648C0.271788 4.74127 0.110337 5.04862 0.210053 5.3328L0.546408 6.29155C0.210632 6.58829 0 7.01163 0 7.48117C0 8.08924 0.353157 8.61999 0.87433 8.89824V16.5586C0.87433 16.8583 1.1297 17.1011 1.4443 17.1011H16.4302C16.7446 17.1011 17 16.8582 17 16.5586V7.2884H3.39928ZM11.7281 1.73857L13.4581 1.18877L13.0418 2.79045L11.3118 3.34026L11.7281 1.73857ZM7.45369 3.09694L9.18388 2.54714L8.76757 4.14876L7.03751 4.69863L7.45369 3.09694ZM1.70579 8.30842C1.22671 8.30842 0.836864 7.93735 0.836864 7.48123C0.836864 7.02511 1.22671 6.65404 1.70579 6.65404C2.18499 6.65404 2.57484 7.02511 2.57484 7.48123C2.57484 7.93735 2.18499 8.30842 1.70579 8.30842ZM3.17951 4.45531L4.90969 3.9055L4.49338 5.50719L2.7632 6.05705L3.17951 4.45531ZM4.87911 9.12004H3.05513L3.9829 7.72632H5.80687L4.87911 9.12004ZM8.48909 7.72632H10.3131L9.38531 9.12004H7.56133L8.48909 7.72632ZM8.04137 14.4618V10.7855L11.1174 12.6236L8.04137 14.4618ZM13.8915 9.12004H12.0675L12.9953 7.72632H14.8193L13.8915 9.12004Z" fill="#B71DDE"/>
</svg>
