<svg width="20" height="12" viewBox="0 0 12 12" fill="none" xmlns="http://www.w3.org/2000/svg">
<path d="M4.3535 9.85356L9 5.20706L6.793 3.00006L2.1465 7.64656C2.08253 7.71061 2.03709 7.79078 2.015 7.87856L1.5 10.5001L4.121 9.98506C4.209 9.96306 4.2895 9.91756 4.3535 9.85356ZM10.5 3.70706C10.6875 3.51953 10.7928 3.26523 10.7928 3.00006C10.7928 2.7349 10.6875 2.48059 10.5 2.29306L9.707 1.50006C9.51947 1.31259 9.26516 1.20728 9 1.20728C8.73484 1.20728 8.48053 1.31259 8.293 1.50006L7.5 2.29306L9.707 4.50006L10.5 3.70706Z" fill="white" fill-opacity="0.81"/>
</svg>
