<svg width="37" height="37" viewBox="0 0 37 37" fill="none" xmlns="http://www.w3.org/2000/svg">
<path d="M15.4167 18.5C15.4167 20.1959 16.8042 21.5834 18.5 21.5834C20.1958 21.5834 21.5833 20.1959 21.5833 18.5C21.5833 16.8042 20.1958 15.4167 18.5 15.4167C16.8042 15.4167 15.4167 16.8042 15.4167 18.5ZM6.16666 18.5C6.16666 20.1959 7.55416 21.5834 9.24999 21.5834C10.9458 21.5834 12.3333 20.1959 12.3333 18.5C12.3333 16.8042 10.9458 15.4167 9.24999 15.4167C7.55416 15.4167 6.16666 16.8042 6.16666 18.5ZM24.6667 18.5C24.6667 20.1959 26.0542 21.5834 27.75 21.5834C29.4458 21.5834 30.8333 20.1959 30.8333 18.5C30.8333 16.8042 29.4458 15.4167 27.75 15.4167C26.0542 15.4167 24.6667 16.8042 24.6667 18.5Z" fill="white"/>
</svg>
