<svg width="68" height="12" viewBox="0 0 68 12" fill="none" xmlns="http://www.w3.org/2000/svg">
<path fill-rule="evenodd" clip-rule="evenodd" d="M46.5976 0.302818H61.4187C62.6669 0.302818 63.1195 0.432774 63.5758 0.676804C64.0321 0.920834 64.3902 1.27894 64.6342 1.73523C64.8782 2.19153 65.0082 2.64413 65.0082 3.89226V8.21338C65.0082 9.4615 64.8782 9.91411 64.6342 10.3704C64.3902 10.8267 64.0321 11.1848 63.5758 11.4288C63.1195 11.6729 62.6669 11.8028 61.4187 11.8028H46.5976C45.3495 11.8028 44.8969 11.6729 44.4406 11.4288C43.9843 11.1848 43.6262 10.8267 43.3822 10.3704C43.1381 9.91411 43.0082 9.4615 43.0082 8.21338V3.89226C43.0082 2.64413 43.1381 2.19153 43.3822 1.73523C43.6262 1.27894 43.9843 0.920834 44.4406 0.676804C44.8969 0.432774 45.3495 0.302818 46.5976 0.302818ZM46.5976 1.30282C45.6106 1.30282 45.2661 1.36936 44.9122 1.55862C44.6302 1.70945 44.4148 1.92481 44.264 2.20683C44.0747 2.56072 44.0082 2.90528 44.0082 3.89226V8.21338C44.0082 9.20036 44.0747 9.54491 44.264 9.8988C44.4148 10.1808 44.6302 10.3962 44.9122 10.547C45.2661 10.7363 45.6106 10.8028 46.5976 10.8028H61.4187C62.4057 10.8028 62.7503 10.7363 63.1042 10.547C63.3862 10.3962 63.6016 10.1808 63.7524 9.8988C63.9416 9.54491 64.0082 9.20036 64.0082 8.21338V3.89226C64.0082 2.90528 63.9416 2.56072 63.7524 2.20683C63.6016 1.92481 63.3862 1.70945 63.1042 1.55862C62.7503 1.36936 62.4057 1.30282 61.4187 1.30282H46.5976ZM67.5082 5.99282C67.5082 7.22939 66.0082 7.99282 66.0082 7.99282V3.99282C66.0082 3.99282 67.5082 4.75625 67.5082 5.99282Z" fill="white"/>
<rect x="45.0082" y="2.21948" width="18" height="7.66667" rx="1.6" fill="white"/>
<path fill-rule="evenodd" clip-rule="evenodd" d="M14.6312 1.70871C14.6082 1.82463 14.6082 1.96403 14.6082 2.24282V9.94282C14.6082 10.2216 14.6082 10.361 14.6312 10.4769C14.7259 10.953 15.098 11.3251 15.5741 11.4198C15.69 11.4428 15.8294 11.4428 16.1082 11.4428C16.387 11.4428 16.5264 11.4428 16.6423 11.4198C17.1183 11.3251 17.4904 10.953 17.5851 10.4769C17.6082 10.361 17.6082 10.2216 17.6082 9.94282V2.24282C17.6082 1.96403 17.6082 1.82463 17.5851 1.70871C17.4904 1.23268 17.1183 0.860566 16.6423 0.765878C16.5264 0.742821 16.387 0.742821 16.1082 0.742821C15.8294 0.742821 15.69 0.742821 15.5741 0.765878C15.098 0.860566 14.7259 1.23268 14.6312 1.70871ZM9.90817 4.64282C9.90817 4.36403 9.90817 4.22463 9.93123 4.10871C10.0259 3.63269 10.398 3.26057 10.8741 3.16588C10.99 3.14282 11.1294 3.14282 11.4082 3.14282C11.687 3.14282 11.8264 3.14282 11.9423 3.16588C12.4183 3.26057 12.7904 3.63269 12.8851 4.10871C12.9082 4.22463 12.9082 4.36403 12.9082 4.64282V9.94283C12.9082 10.2216 12.9082 10.361 12.8851 10.4769C12.7904 10.953 12.4183 11.3251 11.9423 11.4198C11.8264 11.4428 11.687 11.4428 11.4082 11.4428C11.1294 11.4428 10.99 11.4428 10.8741 11.4198C10.398 11.3251 10.0259 10.953 9.93123 10.4769C9.90817 10.361 9.90817 10.2216 9.90817 9.94283V4.64282ZM5.33122 6.40872C5.30817 6.52464 5.30817 6.66403 5.30817 6.94283V9.94283C5.30817 10.2216 5.30817 10.361 5.33122 10.4769C5.42591 10.953 5.79803 11.3251 6.27406 11.4198C6.38998 11.4428 6.52937 11.4428 6.80817 11.4428C7.08696 11.4428 7.22636 11.4428 7.34227 11.4198C7.8183 11.3251 8.19042 10.953 8.28511 10.4769C8.30817 10.361 8.30817 10.2216 8.30817 9.94283V6.94283C8.30817 6.66403 8.30817 6.52464 8.28511 6.40872C8.19042 5.93269 7.8183 5.56057 7.34227 5.46588C7.22636 5.44283 7.08696 5.44283 6.80817 5.44283C6.52937 5.44283 6.38998 5.44283 6.27406 5.46588C5.79803 5.56057 5.42591 5.93269 5.33122 6.40872ZM0.531236 8.40872C0.508179 8.52464 0.508179 8.66403 0.508179 8.94283V9.94283C0.508179 10.2216 0.508179 10.361 0.531236 10.4769C0.625924 10.953 0.998042 11.3251 1.47407 11.4198C1.58999 11.4428 1.72939 11.4428 2.00818 11.4428C2.28697 11.4428 2.42637 11.4428 2.54229 11.4198C3.01832 11.3251 3.39043 10.953 3.48512 10.4769C3.50818 10.361 3.50818 10.2216 3.50818 9.94283V8.94283C3.50818 8.66403 3.50818 8.52464 3.48512 8.40872C3.39043 7.93269 3.01832 7.56057 2.54229 7.46588C2.42637 7.44283 2.28697 7.44283 2.00818 7.44283C1.72939 7.44283 1.58999 7.44283 1.47407 7.46588C0.998042 7.56057 0.625924 7.93269 0.531236 8.40872Z" fill="white"/>
<path fill-rule="evenodd" clip-rule="evenodd" d="M30.3086 2.83918C32.543 2.83927 34.692 3.69783 36.3113 5.23739C36.4333 5.35624 36.6282 5.35475 36.7483 5.23402L37.9139 4.05761C37.9748 3.99638 38.0087 3.91344 38.0081 3.82714C38.0076 3.74085 37.9728 3.65831 37.9112 3.5978C33.6609 -0.475511 26.9556 -0.475511 22.7052 3.5978C22.6437 3.65827 22.6087 3.74078 22.6082 3.82707C22.6076 3.91337 22.6414 3.99633 22.7022 4.05761L23.8682 5.23402C23.9882 5.35493 24.1833 5.35643 24.3052 5.23739C25.9247 3.69773 28.0739 2.83917 30.3086 2.83918ZM30.3086 6.66656C31.5362 6.66649 32.7201 7.1228 33.6301 7.94684C33.7532 8.06379 33.9471 8.06125 34.0671 7.94113L35.2314 6.76471C35.2927 6.703 35.3267 6.61929 35.3258 6.53231C35.3249 6.44532 35.2892 6.36232 35.2267 6.30187C32.4555 3.72413 28.164 3.72413 25.3928 6.30187C25.3302 6.36232 25.2945 6.44536 25.2937 6.53238C25.2929 6.61939 25.327 6.70309 25.3885 6.76471L26.5524 7.94113C26.6724 8.06125 26.8663 8.06379 26.9894 7.94684C27.8988 7.12335 29.0817 6.66707 30.3086 6.66656ZM32.5461 9.47416C32.6084 9.41305 32.6427 9.32895 32.6409 9.24172C32.6391 9.15449 32.6014 9.07186 32.5367 9.01334C31.2505 7.92544 29.3667 7.92544 28.0804 9.01334C28.0157 9.07182 27.9779 9.15442 27.9761 9.24165C27.9742 9.32888 28.0085 9.41301 28.0707 9.47416L30.0851 11.5067C30.1441 11.5664 30.2246 11.6 30.3086 11.6C30.3926 11.6 30.4731 11.5664 30.5321 11.5067L32.5461 9.47416Z" fill="white"/>
</svg>
