<svg width="36" height="34" viewBox="0 0 36 34" fill="none" xmlns="http://www.w3.org/2000/svg">
<rect width="36" height="33.6" rx="8.8" fill="#2CB742"/>
<g clip-path="url(#clip0_2_2309)">
<g filter="url(#filter0_f_2_2309)">
<path d="M5.27154 29.8366L7.05841 23.3167C5.95973 21.4089 5.37414 19.2418 5.38018 17.0263C5.38018 10.0838 11.0307 4.43933 17.9732 4.43933C21.3417 4.43933 24.5051 5.74936 26.8776 8.12786C29.2561 10.5064 30.5662 13.6697 30.5601 17.0323C30.5601 23.9747 24.9095 29.6193 17.9671 29.6193H17.9611C15.8542 29.6193 13.7835 29.0881 11.9423 28.0858L5.27154 29.8366ZM12.2562 25.8039L12.6365 26.0333C14.2424 26.9871 16.0836 27.4882 17.9611 27.4942H17.9671C23.7324 27.4942 28.429 22.8035 28.429 17.0323C28.429 14.2372 27.3424 11.6112 25.3684 9.631C23.3943 7.65091 20.7622 6.56431 17.9671 6.56431C12.1958 6.56431 7.49912 11.255 7.49912 17.0262C7.49912 19.0003 8.04846 20.9261 9.09892 22.5923L9.3464 22.9907L8.29001 26.8483L12.2562 25.8039Z" fill="black" fill-opacity="0.24"/>
</g>
<path d="M5.84238 29.1636L7.54748 22.9452C6.49607 21.1212 5.94297 19.0528 5.94373 16.9475C5.94373 10.3297 11.3334 4.94604 17.9451 4.94604C21.1586 4.94604 24.1695 6.19805 26.435 8.46354C28.7005 10.7291 29.9467 13.7459 29.9467 16.9535C29.9467 23.5712 24.557 28.9548 17.9452 28.9548H17.9393C15.93 28.9548 13.9566 28.4481 12.2038 27.4942L5.84238 29.1637V29.1636Z" fill="url(#paint0_linear_2_2309)"/>
<path d="M5.40698 29.5988L7.17167 23.1599C6.08663 21.2759 5.50823 19.1356 5.51427 16.9476C5.51427 10.0913 11.0947 4.51685 17.951 4.51685C21.2777 4.51685 24.4017 5.81052 26.7449 8.15954C29.0938 10.5086 30.3876 13.6327 30.3816 16.9535C30.3816 23.8098 24.8012 29.3842 17.9449 29.3842H17.939C15.8623 29.3834 13.8189 28.8628 11.9949 27.8698L5.40698 29.5989V29.5988ZM12.3049 25.6162L12.6805 25.8428C14.2665 26.7848 16.0848 27.2797 17.939 27.2856H17.945C23.6386 27.2856 28.2771 22.6532 28.2771 16.9535C28.2771 14.1931 27.2039 11.5997 25.2543 9.64414C23.3048 7.68863 20.7053 6.61547 17.945 6.61547C12.2453 6.61547 7.60695 11.2479 7.60695 16.9476C7.60695 18.8971 8.14942 20.799 9.18686 22.4444L9.43132 22.8379L8.38795 26.6476L12.3049 25.6162Z" fill="white"/>
<path d="M14.8393 11.7428C14.6067 11.224 14.3622 11.2121 14.1417 11.2061C13.9629 11.2002 13.7542 11.2002 13.5455 11.2002C13.3369 11.2002 13.0029 11.2777 12.7168 11.5877C12.4306 11.8978 11.6317 12.649 11.6317 14.1813C11.6317 15.7074 12.7466 17.186 12.9016 17.3946C13.0566 17.6034 15.0539 20.8407 18.2077 22.0867C20.831 23.1242 21.3676 22.9154 21.934 22.8618C22.5063 22.8081 23.7703 22.1106 24.0326 21.3832C24.2889 20.6559 24.2889 20.0358 24.2114 19.9047C24.1339 19.7734 23.9253 19.696 23.6152 19.5409C23.3052 19.386 21.779 18.6347 21.4928 18.5275C21.2066 18.4202 20.998 18.3725 20.7953 18.6825C20.5865 18.9924 19.9904 19.69 19.8115 19.8987C19.6326 20.1074 19.4479 20.1312 19.1378 19.9762C18.8278 19.8212 17.8262 19.4932 16.6398 18.4321C15.7157 17.6093 15.0897 16.5898 14.9107 16.2798C14.7319 15.9698 14.8929 15.8027 15.0479 15.6478C15.185 15.5107 15.3579 15.2841 15.513 15.1053C15.668 14.9264 15.7216 14.7953 15.823 14.5866C15.9243 14.3779 15.8766 14.1991 15.7991 14.0441C15.7216 13.889 15.1135 12.3568 14.8393 11.7428Z" fill="white"/>
</g>
<defs>
<filter id="filter0_f_2_2309" x="4.64658" y="3.81437" width="26.5385" height="26.6471" filterUnits="userSpaceOnUse" color-interpolation-filters="sRGB">
<feFlood flood-opacity="0" result="BackgroundImageFix"/>
<feBlend mode="normal" in="SourceGraphic" in2="BackgroundImageFix" result="shape"/>
<feGaussianBlur stdDeviation="0.312481" result="effect1_foregroundBlur_2_2309"/>
</filter>
<linearGradient id="paint0_linear_2_2309" x1="17.894" y1="29.162" x2="17.894" y2="4.94459" gradientUnits="userSpaceOnUse">
<stop stop-color="#20B038"/>
<stop offset="1" stop-color="#60D66A"/>
</linearGradient>
<clipPath id="clip0_2_2309">
<rect width="26.6651" height="26.7692" fill="white" transform="translate(4.61539 3.69226)"/>
</clipPath>
</defs>
</svg>
