<svg width="36" height="34" viewBox="0 0 36 34" fill="none" xmlns="http://www.w3.org/2000/svg">
<rect width="36" height="33.6" rx="9.8" fill="#395185"/>
<g clip-path="url(#clip0_2_2316)">
<path d="M28.6202 31.6001C29.3821 31.6001 30 30.9823 30 30.2203V7.97976C30 7.21765 29.3821 6.59998 28.6202 6.59998H6.37979C5.61758 6.59998 5 7.21765 5 7.97976V30.2203C5 30.9823 5.61758 31.6001 6.37979 31.6001H28.6202Z" fill="#395185"/>
<path d="M19.5464 32.7146V21.1957H23.4129L23.9918 16.7067H19.5464V13.8405C19.5464 12.5408 19.9074 11.655 21.7712 11.655L24.1484 11.654V7.639C23.7371 7.58427 22.326 7.46204 20.6845 7.46204C17.2571 7.46204 14.9107 9.55406 14.9107 13.396V16.7067H11.0343V21.1957H14.9107V32.7146H19.5464Z" fill="white"/>
</g>
<defs>
<clipPath id="clip0_2_2316">
<rect width="25" height="25" fill="white" transform="translate(5 6.59998)"/>
</clipPath>
</defs>
</svg>
