<svg width="19" height="18" viewBox="0 0 19 18" fill="none" xmlns="http://www.w3.org/2000/svg">
<path d="M7.36901 10.4575C7.08695 10.176 6.89865 9.82965 6.79938 9.45508L0.919793 15.3217C0.484906 15.7557 0.484906 16.4586 0.919793 16.8925C1.35464 17.3264 2.05917 17.3265 2.49405 16.8925L8.15614 11.2429L7.36901 10.4575Z" fill="#B71DDE"/>
<path d="M4.49025 1.66602H1.66992C1.36225 1.66602 1.11328 1.91444 1.11328 2.22143C1.11328 2.52843 1.36225 2.77685 1.66992 2.77685H4.49025C4.79792 2.77685 5.04689 2.52843 5.04689 2.22143C5.04689 1.91444 4.79792 1.66602 4.49025 1.66602Z" fill="#B71DDE"/>
<path d="M4.49025 6.10986H1.66992C1.36225 6.10986 1.11328 6.35828 1.11328 6.66528C1.11328 6.97228 1.36225 7.2207 1.66992 7.2207H4.49025C4.79792 7.2207 5.04689 6.97228 5.04689 6.66528C5.04689 6.35828 4.79792 6.10986 4.49025 6.10986Z" fill="#B71DDE"/>
<path d="M3.37696 3.8877H0.556642C0.248968 3.8877 0 4.13612 0 4.44311C0 4.75011 0.248968 4.99853 0.556642 4.99853H3.37696C3.68464 4.99853 3.93361 4.75011 3.93361 4.44311C3.93361 4.13612 3.68464 3.8877 3.37696 3.8877Z" fill="#B71DDE"/>
<path d="M17.8866 6.66492H14.5097V4.44324C14.5097 3.4677 13.3137 2.95405 12.6089 3.65817L8.15612 8.10119C7.72124 8.53512 7.72124 9.23806 8.15612 9.67199L10.7088 12.2191L7.59948 15.3216C7.16459 15.7556 7.16459 16.4585 7.59948 16.8924C8.03433 17.3263 8.73885 17.3264 9.17374 16.8924L13.0702 13.0045C13.5051 12.5706 13.5051 11.8676 13.0702 11.4337L10.5175 8.88659L12.2831 7.12488V7.77575C12.2831 8.3892 12.7816 8.88659 13.3964 8.88659H17.8866C18.5014 8.88659 18.9999 8.3892 18.9999 7.77575C18.9999 7.16231 18.5014 6.66492 17.8866 6.66492Z" fill="#B71DDE"/>
<path d="M10.3958 1.01988C9.95327 0.726436 9.36619 0.784495 8.99109 1.15874L5.92956 4.21354C5.49467 4.64747 5.49467 5.35041 5.92956 5.78434C6.36444 6.21827 7.06897 6.21823 7.50385 5.7843L9.92013 3.37334L10.7341 3.95838L11.8216 2.87324C12.0035 2.69173 12.2181 2.55084 12.4527 2.44083L10.3958 1.01988Z" fill="#B71DDE"/>
<path d="M15.0664 3.33251C15.9887 3.33251 16.7363 2.58651 16.7363 1.66626C16.7363 0.746009 15.9887 0 15.0664 0C14.1441 0 13.3965 0.746009 13.3965 1.66626C13.3965 2.58651 14.1441 3.33251 15.0664 3.33251Z" fill="#B71DDE"/>
</svg>
