<svg width="19" height="19" viewBox="0 0 19 19" fill="none" xmlns="http://www.w3.org/2000/svg">
<path d="M18.221 17.8036L13.6052 13.0198C14.8139 11.6367 15.5566 9.80747 15.5566 7.79459C15.556 3.48868 12.1886 -0.00146484 8.03442 -0.00146484C3.88021 -0.00146484 0.512817 3.48868 0.512817 7.79459C0.512817 12.1005 3.88021 15.5907 8.03442 15.5907C9.82932 15.5907 11.4756 14.9368 12.7687 13.8497L17.4023 18.6523C17.6281 18.8866 17.9947 18.8866 18.2204 18.6523C18.4467 18.4181 18.4467 18.0379 18.221 17.8036ZM8.03442 14.3912C4.51951 14.3912 1.67012 11.4378 1.67012 7.79459C1.67012 4.15139 4.51951 1.198 8.03442 1.198C11.5494 1.198 14.3987 4.15139 14.3987 7.79459C14.3987 11.4378 11.5494 14.3912 8.03442 14.3912Z" fill="white"/>
</svg>
