<svg width="4" height="15" viewBox="0 0 4 15" fill="none" xmlns="http://www.w3.org/2000/svg">
<path d="M0 7.28128C0 8.17021 0.724768 8.89361 1.61538 8.89361C2.506 8.89361 3.23076 8.17021 3.23076 7.28128C3.23076 6.39235 2.506 5.66895 1.61538 5.66895C0.724768 5.66895 0 6.39235 0 7.28128Z" fill="white"/>
<path d="M0 12.6553C0 13.5442 0.724768 14.2676 1.61538 14.2676C2.506 14.2676 3.23076 13.5442 3.23076 12.6553C3.23076 11.7664 2.506 11.043 1.61538 11.043C0.724768 11.043 0 11.7664 0 12.6553Z" fill="white"/>
<path d="M0 1.90677C0 2.7957 0.724768 3.5191 1.61538 3.5191C2.506 3.5191 3.23076 2.7957 3.23076 1.90677C3.23076 1.01783 2.506 0.294434 1.61538 0.294434C0.724768 0.294434 0 1.01783 0 1.90677Z" fill="white"/>
</svg>
