<svg width="19" height="14" viewBox="0 0 19 14" fill="none" xmlns="http://www.w3.org/2000/svg">
<path d="M1.37056 2.83617H16.9036C17.6607 2.83617 18.2741 2.22407 18.2741 1.46862C18.2741 0.713176 17.6607 0.101074 16.9036 0.101074H1.37056C0.61345 0.101074 0 0.713176 0 1.46862C0 2.22407 0.61345 2.83617 1.37056 2.83617Z" fill="#B71DDE"/>
<path d="M16.9036 5.57129H1.37056C0.61345 5.57129 0 6.18339 0 6.93884C0 7.69428 0.61345 8.30638 1.37056 8.30638H16.9036C17.6607 8.30638 18.2741 7.69428 18.2741 6.93884C18.2741 6.18339 17.6607 5.57129 16.9036 5.57129Z" fill="#B71DDE"/>
<path d="M16.9036 11.0415H1.37056C0.61345 11.0415 0 11.6536 0 12.4091C0 13.1645 0.61345 13.7766 1.37056 13.7766H16.9036C17.6607 13.7766 18.2741 13.1645 18.2741 12.4091C18.2741 11.6536 17.6607 11.0415 16.9036 11.0415Z" fill="#B71DDE"/>
</svg>
