<svg width="19" height="14" viewBox="0 0 19 14" fill="none" xmlns="http://www.w3.org/2000/svg">
<path d="M17.4174 0.101074H0.612706C0.274325 0.101074 0 0.374796 0 0.712433V9.82611C0 10.1637 0.274325 10.4375 0.612706 10.4375H17.4174C17.7557 10.4375 18.0301 10.1637 18.0301 9.82611V0.712433C18.0301 0.374796 17.7557 0.101074 17.4174 0.101074Z" fill="#B71DDE"/>
<path d="M12.5162 12.3178H10.4361V11.498H7.59395V12.3178H5.5138C5.22028 12.3178 4.9823 12.5553 4.9823 12.8482C4.9823 13.141 5.22025 13.3785 5.5138 13.3785H12.5162C12.8097 13.3785 13.0477 13.1411 13.0477 12.8482C13.0477 12.5553 12.8097 12.3178 12.5162 12.3178Z" fill="#B71DDE"/>
</svg>
