<svg width="13" height="13" viewBox="0 0 13 13" fill="none" xmlns="http://www.w3.org/2000/svg">
<path d="M12.0809 10.9937H0.635838C0.467203 10.9937 0.305475 11.0605 0.186233 11.1795C0.0669899 11.2986 0 11.46 0 11.6283C0 11.7966 0.0669899 11.958 0.186233 12.077C0.305475 12.1961 0.467203 12.2629 0.635838 12.2629H12.0809C12.2496 12.2629 12.4113 12.1961 12.5305 12.077C12.6498 11.958 12.7168 11.7966 12.7168 11.6283C12.7168 11.46 12.6498 11.2986 12.5305 11.1795C12.4113 11.0605 12.2496 10.9937 12.0809 10.9937Z" fill="white"/>
<path d="M6.3584 0.0908203C6.18977 0.0908203 6.02804 0.157684 5.9088 0.276702C5.78955 0.395719 5.72256 0.557142 5.72256 0.725459V7.44628L3.63066 5.35197C3.51093 5.23247 3.34854 5.16533 3.17921 5.16533C3.00989 5.16533 2.8475 5.23247 2.72777 5.35197C2.60804 5.47148 2.54077 5.63356 2.54077 5.80257C2.54077 5.97157 2.60804 6.13365 2.72777 6.25316L5.90696 9.42635C5.96607 9.48583 6.03639 9.53305 6.11387 9.56527C6.19136 9.59749 6.27446 9.61408 6.3584 9.61408C6.44234 9.61408 6.52545 9.59749 6.60293 9.56527C6.68041 9.53305 6.75074 9.48583 6.80985 9.42635L9.98904 6.25316C10.0483 6.19399 10.0953 6.12374 10.1274 6.04643C10.1595 5.96911 10.176 5.88625 10.176 5.80257C10.176 5.71888 10.1595 5.63602 10.1274 5.55871C10.0953 5.48139 10.0483 5.41115 9.98904 5.35197C9.92975 5.2928 9.85937 5.24586 9.78191 5.21384C9.70445 5.18181 9.62143 5.16533 9.53759 5.16533C9.45375 5.16533 9.37073 5.18181 9.29327 5.21384C9.21581 5.24586 9.14543 5.2928 9.08615 5.35197L6.99424 7.44628V0.725459C6.99424 0.557142 6.92725 0.395719 6.80801 0.276702C6.68876 0.157684 6.52704 0.0908203 6.3584 0.0908203Z" fill="white"/>
</svg>
