<svg width="350" height="24" viewBox="0 0 350 24" fill="none" xmlns="http://www.w3.org/2000/svg">
<g clip-path="url(#clip0_501_3394)">
<path d="M292 2C297.523 2 302 6.477 302 12C302 17.523 297.523 22 292 22C286.477 22 282 17.523 282 12H284C284 16.418 287.582 20 292 20C296.418 20 300 16.418 300 12C300 7.582 296.418 4 292 4C289.536 4 287.332 5.114 285.865 6.865L288 9H282V3L284.447 5.446C286.28 3.336 288.984 2 292 2ZM293 7V11.585L296.243 14.828L294.828 16.243L291 12.413V7H293Z" fill="#FEFEFE"/>
</g>
<g clip-path="url(#clip1_501_3394)">
<path d="M338 3C336.9 3 336 3.9 336 5C336 6.1 336.9 7 338 7C339.1 7 340 6.1 340 5C340 3.9 339.1 3 338 3ZM338 17C336.9 17 336 17.9 336 19C336 20.1 336.9 21 338 21C339.1 21 340 20.1 340 19C340 17.9 339.1 17 338 17ZM338 10C336.9 10 336 10.9 336 12C336 13.1 336.9 14 338 14C339.1 14 340 13.1 340 12C340 10.9 339.1 10 338 10Z" fill="#FEFEFE"/>
</g>
<g clip-path="url(#clip2_501_3394)">
<path d="M20 17H22V19H2V17H4V10C4 7.87827 4.84285 5.84344 6.34315 4.34315C7.84344 2.84285 9.87827 2 12 2C14.1217 2 16.1566 2.84285 17.6569 4.34315C19.1571 5.84344 20 7.87827 20 10V17ZM18 17V10C18 8.4087 17.3679 6.88258 16.2426 5.75736C15.1174 4.63214 13.5913 4 12 4C10.4087 4 8.88258 4.63214 7.75736 5.75736C6.63214 6.88258 6 8.4087 6 10V17H18ZM9 21H15V23H9V21Z" fill="#FEFEFE"/>
</g>
<defs>
<clipPath id="clip0_501_3394">
<rect width="24" height="24" fill="white" transform="translate(280)"/>
</clipPath>
<clipPath id="clip1_501_3394">
<rect width="24" height="24" fill="white" transform="translate(326)"/>
</clipPath>
<clipPath id="clip2_501_3394">
<rect width="24" height="24" fill="white"/>
</clipPath>
</defs>
</svg>
