<svg width="48" height="48" viewBox="0 0 48 48" fill="none" xmlns="http://www.w3.org/2000/svg">
<path fill-rule="evenodd" clip-rule="evenodd" d="M0 4C0 1.79086 1.79086 0 4 0H44C46.2091 0 48 1.79086 48 4V44C48 46.2091 46.2091 48 44 48H4C1.79086 48 0 46.2091 0 44V4Z" fill="black"/>
<path d="M0.5 4C0.5 2.067 2.067 0.5 4 0.5H44C45.933 0.5 47.5 2.067 47.5 4V44C47.5 45.933 45.933 47.5 44 47.5H4C2.067 47.5 0.5 45.933 0.5 44V4Z" stroke="#E4E4E4" stroke-opacity="0.6"/>
<path d="M30.7696 13.1694H17.2312C11.2742 13.1694 6.40039 18.0433 6.40039 24.0002C6.40039 29.9571 11.2742 34.831 17.2312 34.831H30.7696C36.7266 34.831 41.6004 29.9571 41.6004 24.0002C41.6004 18.0433 36.7266 13.1694 30.7696 13.1694Z" fill="#1565C0"/>
<path d="M17.2308 15.8769C12.7631 15.8769 9.10767 19.5323 9.10767 24C9.10767 28.4677 12.7631 32.1231 17.2308 32.1231C21.6984 32.1231 25.3538 28.4677 25.3538 24C25.3538 19.5323 21.6984 15.8769 17.2308 15.8769ZM11.8154 24C11.8154 21.4277 13.5754 19.3969 15.8769 18.72V29.1446C13.5754 28.6031 11.8154 26.5723 11.8154 24ZM18.5846 29.28V18.8554C20.8861 19.3969 22.6461 21.5631 22.6461 24.1354C22.6461 26.5723 20.8861 28.6031 18.5846 29.28Z" fill="white"/>
</svg>
