<svg width="48" height="48" viewBox="0 0 48 48" fill="none" xmlns="http://www.w3.org/2000/svg">
<path fill-rule="evenodd" clip-rule="evenodd" d="M0 4C0 1.79086 1.79086 0 4 0H44C46.2091 0 48 1.79086 48 4V44C48 46.2091 46.2091 48 44 48H4C1.79086 48 0 46.2091 0 44V4Z" fill="black"/>
<path d="M0.5 4C0.5 2.067 2.067 0.5 4 0.5H44C45.933 0.5 47.5 2.067 47.5 4V44C47.5 45.933 45.933 47.5 44 47.5H4C2.067 47.5 0.5 45.933 0.5 44V4Z" stroke="#E4E4E4" stroke-opacity="0.6"/>
<path d="M22.8158 19.6691L20.2012 25.4638L17.5989 19.6691H14.2641V27.9919L10.5482 19.6691H7.73433L3.93921 28.3074H6.1851L7.0154 26.3795H11.2622L12.1061 28.3074H16.3937V21.8914L19.2385 28.3074H21.1726L24.0817 22.0028V28.3074H26.2125V19.6691H22.8158ZM7.81848 24.5135L9.08805 21.4942L10.4071 24.5135H7.81848Z" fill="#1976D2"/>
<path d="M40.2046 23.8925L44.0616 19.6915H41.3183L38.8509 22.3692L36.4639 19.6692H27.9753V28.3088H36.1855L38.7742 25.4491L41.2985 28.331H44.0332L40.2046 23.8925ZM35.0632 26.4947H30.1V24.7859H34.8491V23.1488H30.1V21.5302L35.3391 21.5451L37.4341 23.8925L35.0632 26.4947Z" fill="#1976D2"/>
</svg>
