<svg width="24" height="26" viewBox="0 0 24 26" fill="none" xmlns="http://www.w3.org/2000/svg">
<g id="Group 43">
<path id="Vector" d="M9.99994 25.6015C11.811 25.6015 13.3261 24.2243 13.674 22.4014H6.32593C6.67401 24.2243 8.18903 25.6015 9.99994 25.6015Z" fill="black"/>
<path id="Vector_2" d="M17.5759 15.4631C17.5499 15.4631 17.5259 15.4674 17.4999 15.4674C13.0889 15.4674 9.50006 11.6391 9.50006 6.93376C9.50006 5.08503 10.06 3.37732 11.0001 1.97764V1.06666C11.0001 0.476783 10.552 0 9.99994 0C9.44806 0 9 0.476783 9 1.06666V2.21887C5.61292 2.7394 3 5.84679 3 9.6005V12.5745C3 14.6855 2.133 16.6782 0.611939 18.05C0.223022 18.4053 0 18.9215 0 19.4676C0 20.4972 0.784973 21.3345 1.74994 21.3345H18.2499C19.2151 21.3345 20.0001 20.4972 20.0001 19.4676C20.0001 18.9215 19.777 18.4053 19.3781 18.0416C18.59 17.33 17.9821 16.4446 17.5759 15.4631Z" fill="black"/>
<path id="Vector_3" d="M17.4999 0C13.916 0 11 3.11051 11 6.93376C11 10.7568 13.916 13.8673 17.4999 13.8673C21.084 13.8673 23.9999 10.7568 23.9999 6.93376C23.9999 3.11051 21.084 0 17.4999 0ZM18.5 9.33389C18.5 9.77551 18.164 10.1339 17.75 10.1339C17.336 10.1339 17 9.77551 17 9.33389V5.86691H16.4999C16.0859 5.86691 15.7499 5.50849 15.7499 5.06687C15.7499 4.62524 16.0859 4.26682 16.4999 4.26682H17.75C18.164 4.26682 18.5 4.62524 18.5 5.06687V9.33389Z" fill="#FF783F"/>
</g>
</svg>
