<svg width="33" height="33" viewBox="0 0 33 33" fill="none" xmlns="http://www.w3.org/2000/svg">
<g clip-path="url(#clip0_2_2245)">
<path d="M12.4525 26.3794L3.26151 17.24C3.2085 17.1873 3.16644 17.1246 3.13773 17.0556C3.10903 16.9865 3.09425 16.9125 3.09425 16.8378C3.09425 16.763 3.10903 16.689 3.13773 16.62C3.16644 16.551 3.2085 16.4883 3.26151 16.4356L5.58182 14.1127C5.80354 13.891 6.1619 13.891 6.38362 14.1127L12.4345 20.1275C12.6562 20.3492 13.0171 20.3466 13.2389 20.1249L26.609 6.62582C26.8307 6.40152 27.1917 6.40152 27.416 6.62324L29.7388 8.94613C29.9606 9.16785 29.9606 9.52621 29.7414 9.74793L15.175 24.4458L15.1776 24.4484L13.2569 26.3794C13.0352 26.6011 12.6742 26.6011 12.4525 26.3794Z" fill="#E0E0E0" stroke="#E0E0E0" stroke-width="1.54688" stroke-miterlimit="10"/>
</g>
<defs>
<clipPath id="clip0_2_2245">
<rect width="33" height="33" fill="white"/>
</clipPath>
</defs>
</svg>
