<svg width="12" height="12" viewBox="0 0 12 12" fill="none" xmlns="http://www.w3.org/2000/svg">
<path d="M10.2274 4.59649L2.46628 0.217793C2.21282 0.0729465 1.92552 -0.0021825 1.6336 4.82682e-05C1.34168 0.00227904 1.05556 0.08179 0.804339 0.230493C0.559592 0.370471 0.356254 0.572735 0.214982 0.816739C0.0737106 1.06074 -0.000461073 1.33779 2.15653e-06 1.61974V10.3771C-0.000461073 10.6591 0.0737106 10.9361 0.214982 11.1801C0.356254 11.4241 0.559592 11.6264 0.804339 11.7664C1.05558 11.915 1.34169 11.9945 1.6336 11.9967C1.92551 11.9989 2.2128 11.9239 2.46628 11.7791L10.2274 7.40038C10.4777 7.26173 10.6864 7.05858 10.8316 6.81205C10.9769 6.56551 11.0535 6.28459 11.0535 5.99844C11.0535 5.71229 10.9769 5.43136 10.8316 5.18483C10.6864 4.9383 10.4777 4.73515 10.2274 4.59649Z" fill="white"/>
</svg>
