<svg width="17" height="18" viewBox="0 0 17 18" fill="none" xmlns="http://www.w3.org/2000/svg">
<path d="M16.5433 7.63414C16.543 7.63375 16.5426 7.63336 16.5422 7.63297L9.60682 0.711659C9.3112 0.416502 8.91817 0.253906 8.50011 0.253906C8.08204 0.253906 7.68901 0.416372 7.39327 0.71153L0.461536 7.62935C0.459201 7.63168 0.456866 7.63414 0.454532 7.63647C-0.152525 8.24581 -0.151487 9.23446 0.457515 9.84225C0.735749 10.1201 1.10323 10.281 1.49613 10.2978C1.51208 10.2994 1.52817 10.3001 1.54438 10.3001H1.8208V15.3938C1.8208 16.4017 2.64253 17.2218 3.65273 17.2218H6.36607C6.64106 17.2218 6.86417 16.9993 6.86417 16.7247V12.7313C6.86417 12.2713 7.23904 11.8972 7.69991 11.8972H9.30031C9.76118 11.8972 10.136 12.2713 10.136 12.7313V16.7247C10.136 16.9993 10.359 17.2218 10.6341 17.2218H13.3475C14.3577 17.2218 15.1794 16.4017 15.1794 15.3938V10.3001H15.4357C15.8537 10.3001 16.2467 10.1377 16.5426 9.84251C17.1522 9.23368 17.1525 8.24335 16.5433 7.63414Z" fill="#B71DDE"/>
</svg>
