<svg width="24" height="20" viewBox="0 0 24 20" fill="white" xmlns="http://www.w3.org/2000/svg">
<path id="Vector" d="M22.5603 8.53554H22.5601H6.19468C5.89123 8.53119 5.64862 8.27746 5.6529 7.96882C5.65491 7.82523 5.71112 7.68789 5.80998 7.58534L10.8218 2.49882C11.3834 1.92345 11.3834 0.99488 10.8218 0.419505C10.2513 -0.139835 9.348 -0.139835 8.77752 0.419505L0.369499 8.96032C0.303142 9.02818 0.244204 9.10316 0.193663 9.18392C0.145389 9.26341 0.101339 9.34552 0.0617721 9.42984L0.0068006 9.59753C0.00473981 9.6385 0.00473981 9.67953 0.0068006 9.72051C-0.00190623 9.81347 -0.00190623 9.90706 0.0068006 9.99997C-0.00226687 10.0967 -0.00226687 10.194 0.0068006 10.2906V10.4136V10.5478C0.0301906 10.6102 0.0596598 10.6701 0.0947448 10.7266L0.149716 10.8384C0.198969 10.9066 0.254147 10.9703 0.314579 11.0285L8.7226 19.5805C9.29308 20.1398 10.1964 20.1398 10.7669 19.5805C11.3273 19.0089 11.3273 18.0839 10.7669 17.5123L5.80998 12.4147C5.59752 12.1943 5.60092 11.8403 5.81766 11.6242C5.91848 11.5237 6.05346 11.4664 6.19468 11.4645H22.5601C23.3553 11.4645 23.9999 10.8089 24 10.0001C24.0001 9.1913 23.3554 8.5356 22.5603 8.53554Z" fill="white"/>
</svg>
